<svg width="31" height="42" viewBox="0 0 31 42" fill="none" xmlns="http://www.w3.org/2000/svg">
<path d="M18.513 31.2092C18.2951 31.2099 18.0799 31.1619 17.883 31.0685C17.6862 30.9751 17.5128 30.8388 17.3755 30.6696L10.3318 21.9196C10.1173 21.6587 10 21.3314 10 20.9936C10 20.6558 10.1173 20.3285 10.3318 20.0675L17.6234 11.3175C17.871 11.0197 18.2267 10.8324 18.6123 10.7969C18.9979 10.7613 19.3819 10.8804 19.6797 11.128C19.9775 11.3755 20.1648 11.7312 20.2003 12.1168C20.2359 12.5024 20.1168 12.8864 19.8693 13.1842L13.3505 21.0009L19.6505 28.8175C19.8288 29.0316 19.9421 29.2923 19.9769 29.5687C20.0118 29.8451 19.9667 30.1257 19.847 30.3773C19.7273 30.6289 19.5381 30.841 19.3017 30.9884C19.0653 31.1358 18.7916 31.2125 18.513 31.2092Z" fill="white"/>
</svg>
