<svg width="379" height="379" viewBox="0 0 379 379" fill="none" xmlns="http://www.w3.org/2000/svg">
<g clip-path="url(#clip0_6_2)">
<path d="M189.167 0C84.86 0 0 84.86 0 189.167C0 293.474 84.86 378.334 189.167 378.334C293.474 378.334 378.334 293.474 378.334 189.167C378.334 84.86 293.474 0 189.167 0ZM189.167 348.334C101.402 348.334 30 276.932 30 189.167C30 101.402 101.402 30 189.167 30C276.932 30 348.334 101.402 348.334 189.167C348.334 276.932 276.932 348.334 189.167 348.334Z" fill="#151729"/>
<path d="M135 222C153.225 222 168 207.225 168 189C168 170.775 153.225 156 135 156C116.775 156 102 170.775 102 189C102 207.225 116.775 222 135 222Z" fill="#151729"/>
<path d="M242.084 222C260.309 222 275.084 207.225 275.084 189C275.084 170.775 260.309 156 242.084 156C223.859 156 209.084 170.775 209.084 189C209.084 207.225 223.859 222 242.084 222Z" fill="#151729"/>
</g>
<defs>
<clipPath id="clip0_6_2">
<rect width="379" height="379" fill="white"/>
</clipPath>
</defs>
</svg>
