<svg width="20" height="22" viewBox="0 0 20 22" fill="none" xmlns="http://www.w3.org/2000/svg">
<path d="M16.4793 0.956787C16.0169 0.956787 15.5589 1.04788 15.1317 1.22485C14.7044 1.40183 14.3162 1.66123 13.9892 1.98824C13.6622 2.31525 13.4028 2.70347 13.2258 3.13073C13.0488 3.55799 12.9577 4.01592 12.9577 4.47839C12.9577 4.94085 13.0488 5.39878 13.2258 5.82604C13.4028 6.25331 13.6622 6.64152 13.9892 6.96853C14.3162 7.29554 14.7044 7.55494 15.1317 7.73192C15.5589 7.9089 16.0169 7.99999 16.4793 7.99999C17.4133 7.99977 18.3089 7.62855 18.9692 6.96797C19.6295 6.30739 20.0003 5.41157 20.0001 4.47759C19.9999 3.5436 19.6287 2.64795 18.9681 1.98767C18.3075 1.3274 17.4117 0.956575 16.4777 0.956787H16.4793ZM3.67931 0.956787C3.21685 0.956787 2.75892 1.04788 2.33166 1.22485C1.9044 1.40183 1.51618 1.66123 1.18917 1.98824C0.862157 2.31525 0.602758 2.70347 0.425781 3.13073C0.248804 3.55799 0.157715 4.01592 0.157715 4.47839C0.157715 4.94085 0.248804 5.39878 0.425781 5.82604C0.602758 6.25331 0.862157 6.64152 1.18917 6.96853C1.51618 7.29554 1.9044 7.55494 2.33166 7.73192C2.75892 7.9089 3.21685 7.99999 3.67931 7.99999C4.6133 7.99977 5.50895 7.62855 6.16923 6.96797C6.82951 6.30739 7.20033 5.41157 7.20011 4.47759C7.1999 3.5436 6.82867 2.64795 6.1681 1.98767C5.50752 1.3274 4.6117 0.956575 3.67771 0.956787H3.67931Z" fill="white"/>
<path d="M16.4793 14C16.0169 14 15.5589 14.0911 15.1317 14.2681C14.7044 14.445 14.3162 14.7044 13.9892 15.0315C13.6622 15.3585 13.4028 15.7467 13.2258 16.1739C13.0488 16.6012 12.9577 17.0591 12.9577 17.5216C12.9577 17.9841 13.0488 18.442 13.2258 18.8693C13.4028 19.2965 13.6622 19.6847 13.9892 20.0117C14.3162 20.3388 14.7044 20.5982 15.1317 20.7751C15.5589 20.9521 16.0169 21.0432 16.4793 21.0432C17.4133 21.043 18.3089 20.6718 18.9692 20.0112C19.6295 19.3506 20.0003 18.4548 20.0001 17.5208C19.9999 16.5868 19.6287 15.6912 18.9681 15.0309C18.3075 14.3706 17.4117 13.9998 16.4777 14H16.4793ZM3.67931 14C3.21685 14 2.75892 14.0911 2.33166 14.2681C1.9044 14.445 1.51618 14.7044 1.18917 15.0315C0.862157 15.3585 0.602758 15.7467 0.425781 16.1739C0.248804 16.6012 0.157715 17.0591 0.157715 17.5216C0.157715 17.9841 0.248804 18.442 0.425781 18.8693C0.602758 19.2965 0.862157 19.6847 1.18917 20.0117C1.51618 20.3388 1.9044 20.5982 2.33166 20.7751C2.75892 20.9521 3.21685 21.0432 3.67931 21.0432C4.6133 21.043 5.50895 20.6718 6.16923 20.0112C6.82951 19.3506 7.20033 18.4548 7.20011 17.5208C7.1999 16.5868 6.82867 15.6912 6.1681 15.0309C5.50752 14.3706 4.6117 13.9998 3.67771 14H3.67931Z" fill="white"/>
</svg>
